<svg xmlns="http://www.w3.org/2000/svg" viewBox="3 2 58 51" width="290" height="255">
<title>L'astronauta di MdExplorer</title>
<style>.cls-1{fill:#a86c4d;}.cls-2{fill:#de926a;}.cls-3{fill:none;}.cls-10,.cls-14,.cls-3,.cls-7,.cls-8,.cls-9{stroke:#45413c;stroke-linecap:round;stroke-linejoin:round;}.cls-14,.cls-4{fill:#45413c;}.cls-4{opacity:0.15;}.cls-5{fill:#fff;}.cls-6{fill:#e0e0e0;}.cls-15,.cls-7{fill:#ff6242;}.cls-8{fill:#009fd9;}.cls-9{fill:#656769;}.cls-10{fill:#ffcebf;}.cls-11{fill:#00b8f0;}.cls-12{fill:#4acfff;}.cls-13{fill:#bdbec0;}.cls-16{fill:#ffa694;}.cls-17{fill:#ffb59e;}
#figura { animation: galleggia 6s ease-in-out infinite; transform-box: fill-box; transform-origin: center; }
@keyframes galleggia { 0%,100% { transform: translateY(0) rotate(-1.2deg); } 50% { transform: translateY(-1.6px) rotate(1.2deg); } }
.occhio { transform-box: fill-box; transform-origin: center; }
#riflesso { animation: riflesso 5s ease-in-out infinite; }
@keyframes riflesso { 0%,100% { opacity: 1; } 50% { opacity: .55; } }

#occhio-sx { animation: palpebre 8s linear infinite; }
#occhio-dx { animation: occhiolino 8s linear infinite; }
@keyframes palpebre { 0%,6%,10%,100% { transform: scaleY(1); } 8% { transform: scaleY(.12); } }
@keyframes occhiolino { 0%,32%,52%,100% { transform: scaleY(1); } 36%,48% { transform: scaleY(.12) scaleX(1.5); } }
.mano-dentro { transform-box: fill-box; transform-origin: 20% 100%; animation: mano 8s cubic-bezier(.3,1.4,.5,1) infinite; }
@keyframes mano {
  0%,16% { transform: translate(-4px,9px) rotate(-35deg) scale(.6); opacity: 0; }
  24% { transform: translate(0,0) rotate(6deg) scale(1.05); opacity: 1; }
  28%,40% { transform: translate(0,0) rotate(0deg) scale(1); opacity: 1; }
  46% { transform: translate(0,-.5px) rotate(-5deg) scale(1); opacity: 1; }
  52% { transform: translate(0,0) rotate(4deg) scale(1); opacity: 1; }
  58%,78% { transform: translate(0,0) rotate(0deg) scale(1); opacity: 1; }
  88%,100% { transform: translate(-4px,9px) rotate(-35deg) scale(.6); opacity: 0; }
}
.scintilla { transform-box: fill-box; transform-origin: center; animation: scintilla 8s ease-in-out infinite; }
@keyframes scintilla { 0%,26%,80%,100% { opacity: 0; transform: scale(.3); } 34%,44% { opacity: 1; transform: scale(1); } 54% { opacity: .5; transform: scale(.7); } 64%,72% { opacity: 1; transform: scale(1); } }
</style>
<g id="figura"><path class="cls-1" d="M30.59,6.32A10.87,10.87,0,0,1,41.46,17.19V31.38a1.23,1.23,0,0,1-.77,1.14h0a27.06,27.06,0,0,1-20.21,0h0a1.23,1.23,0,0,1-.77-1.14V17.19A10.88,10.88,0,0,1,30.59,6.32Z" data-name="&lt;Path&gt;" id="_Path_"/><path class="cls-2" d="M30.59,6.32A10.88,10.88,0,0,0,19.71,17.19v3a10.88,10.88,0,1,1,21.75,0v-3A10.87,10.87,0,0,0,30.59,6.32Z" data-name="&lt;Path&gt;" id="_Path_2"/><path class="cls-3" d="M30.59,6.32A10.87,10.87,0,0,1,41.46,17.19V31.38a1.23,1.23,0,0,1-.77,1.14h0a27.06,27.06,0,0,1-20.21,0h0a1.23,1.23,0,0,1-.77-1.14V17.19A10.88,10.88,0,0,1,30.59,6.32Z" data-name="&lt;Path&gt;" id="_Path_3"/><path class="cls-5" d="M39.32,32.84,30.59,30l-8.74,2.87a6.87,6.87,0,0,0-5.05,6.31V45H44.37V39.15A6.87,6.87,0,0,0,39.32,32.84Z"/><path class="cls-6" d="M39.32,32.84,30.59,30l-8.74,2.87a6.87,6.87,0,0,0-5.05,6.31v3a6.87,6.87,0,0,1,5.05-6.31L30.59,33l8.73,2.87a6.87,6.87,0,0,1,5,6.31v-3A6.87,6.87,0,0,0,39.32,32.84Z"/><path class="cls-3" d="M39.32,32.84,30.59,30l-8.74,2.87a6.87,6.87,0,0,0-5.05,6.31V45H44.37V39.15A6.87,6.87,0,0,0,39.32,32.84Z"/><line class="cls-3" data-name="&lt;Path&gt;" id="_Path_4" x1="38.8" x2="38.8" y1="45" y2="33.7"/><line class="cls-3" data-name="&lt;Path&gt;" id="_Path_5" x1="22.38" x2="22.38" y1="45" y2="33.7"/><rect class="cls-7" data-name="&lt;Rectangle&gt;" height="2.5" id="_Rectangle_" width="4.55" x="24.4" y="39.41"/><circle class="cls-8" cx="35.51" cy="40.66" data-name="&lt;Path&gt;" id="_Path_6" r="1.25"/><ellipse class="cls-5" cx="30.59" cy="32.04" data-name="&lt;Path&gt;" id="_Path_7" rx="9.1" ry="3.83"/><path class="cls-6" d="M30.59,28.21c-4.4,0-8.07,1.31-8.92,3.06.85,1.74,4.52,3.06,8.92,3.06S38.65,33,39.5,31.27C38.65,29.52,35,28.21,30.59,28.21Z" data-name="&lt;Path&gt;" id="_Path_8"/><ellipse class="cls-3" cx="30.59" cy="32.04" data-name="&lt;Path&gt;" id="_Path_9" rx="9.1" ry="3.83"/><ellipse class="cls-9" cx="30.59" cy="31.49" data-name="&lt;Path&gt;" id="_Path_10" rx="6.29" ry="1.47"/><path class="cls-10" d="M28,32.83a25,25,0,0,0,5.09,0V29.58H28Z"/><path class="cls-6" d="M18.68,27.79h0a0,0,0,0,1,0,0v6.73a1.54,1.54,0,0,1-1.54,1.54h0a.79.79,0,0,1-.79-.79V30.13A2.34,2.34,0,0,1,18.68,27.79Z" data-name="&lt;Rectangle&gt;" id="_Rectangle_2" transform="translate(45.18 55.59) rotate(159.27)"/><path class="cls-3" d="M18.68,27.79h0a0,0,0,0,1,0,0v6.73a1.54,1.54,0,0,1-1.54,1.54h0a.79.79,0,0,1-.79-.79V30.13A2.34,2.34,0,0,1,18.68,27.79Z" data-name="&lt;Rectangle&gt;" id="_Rectangle_3" transform="translate(45.18 55.59) rotate(159.27)"/><path class="cls-6" d="M6.54,42.59a.77.77,0,0,0,.77.77H8A10,10,0,0,0,8.5,45H28.62a10,10,0,0,0,.5-1.64h.69a.77.77,0,0,0,.78-.77V39.54a.77.77,0,0,0-.78-.77h-.69A10.8,10.8,0,0,0,8,38.77H7.31a.77.77,0,0,0-.77.77Z" data-name="&lt;Path&gt;" id="_Path_11"/><path class="cls-5" d="M29.81,38.77h-.69A10.8,10.8,0,0,0,8,38.77H7.31a.77.77,0,0,0-.77.77v2.17a.78.78,0,0,1,.77-.78.88.88,0,0,0,.85-.64,10.81,10.81,0,0,1,20.8,0,.89.89,0,0,0,.85.64.78.78,0,0,1,.78.78V39.54A.77.77,0,0,0,29.81,38.77Z"/><path class="cls-3" d="M6.54,42.59a.77.77,0,0,0,.77.77H8A10,10,0,0,0,8.5,45H28.62a10,10,0,0,0,.5-1.64h.69a.77.77,0,0,0,.78-.77V39.54a.77.77,0,0,0-.78-.77h-.69A10.8,10.8,0,0,0,8,38.77H7.31a.77.77,0,0,0-.77.77Z" data-name="&lt;Path&gt;" id="_Path_12"/><path class="cls-11" d="M26.26,45A8.65,8.65,0,1,0,9.91,41.07a8.55,8.55,0,0,0,1,3.93Z" data-name="&lt;Path&gt;" id="_Path_13"/><path class="cls-12" d="M18.56,36.72c4.3,0,7.86,2.48,8.53,5.71A8.64,8.64,0,1,0,9.91,41.07,7.65,7.65,0,0,0,10,42.43C10.7,39.2,14.26,36.72,18.56,36.72Z" data-name="&lt;Path&gt;" id="riflesso"/><path class="cls-3" d="M26.26,45A8.65,8.65,0,1,0,9.91,41.07a8.55,8.55,0,0,0,1,3.93Z" data-name="&lt;Path&gt;" id="_Path_15"/><rect class="cls-13" data-name="&lt;Rectangle&gt;" height="2.31" id="_Rectangle_4" rx="1.15" ry="1.15" transform="translate(-3.48 61.29) rotate(-123.29)" width="4.33" x="12.63" y="30.43"/><path class="cls-6" d="M13.61,29.78a1.15,1.15,0,0,0-.33,1.59l.83,1.26A1.15,1.15,0,0,1,14.44,31a1.16,1.16,0,0,1,1.6.33l-.84-1.26A1.14,1.14,0,0,0,13.61,29.78Z"/><rect class="cls-3" data-name="&lt;Rectangle&gt;" height="2.31" id="_Rectangle_5" rx="1.15" ry="1.15" transform="translate(-3.48 61.29) rotate(-123.29)" width="4.33" x="12.63" y="30.43"/><rect class="cls-13" data-name="&lt;Rectangle&gt;" height="2.31" id="_Rectangle_6" rx="1.15" ry="1.15" transform="translate(-7.53 61.59) rotate(-123.29)" width="4.33" x="10.69" y="31.67"/><path class="cls-6" d="M11.66,31a1.16,1.16,0,0,0-.33,1.6l.83,1.26a1.15,1.15,0,0,1,1.93-1.26l-.83-1.26A1.16,1.16,0,0,0,11.66,31Z"/><rect class="cls-3" data-name="&lt;Rectangle&gt;" height="2.31" id="_Rectangle_7" rx="1.15" ry="1.15" transform="translate(-7.53 61.59) rotate(-123.29)" width="4.33" x="10.69" y="31.67"/><rect class="cls-13" data-name="&lt;Rectangle&gt;" height="2.31" id="_Rectangle_8" rx="1.15" ry="1.15" transform="translate(-11.53 62.43) rotate(-123.29)" width="4.33" x="8.91" y="33.17"/><path class="cls-6" d="M9.89,32.52a1.15,1.15,0,0,0-.33,1.59l.83,1.27a1.16,1.16,0,1,1,1.93-1.27l-.83-1.26A1.15,1.15,0,0,0,9.89,32.52Z"/><rect class="cls-3" data-name="&lt;Rectangle&gt;" height="2.31" id="_Rectangle_9" rx="1.15" ry="1.15" transform="translate(-11.53 62.43) rotate(-123.29)" width="4.33" x="8.91" y="33.17"/><g data-name="&lt;Group&gt;" id="_Group_"><path class="cls-10" d="M39.65,19.47a8.75,8.75,0,0,1-5.67-5L33.35,13a15.87,15.87,0,0,1-9.94,6.18l-1.89.34a1.81,1.81,0,0,0,0,3.62h.11a9.05,9.05,0,0,0,17.91,0h.11a1.81,1.81,0,0,0,0-3.62Z" data-name="&lt;Path&gt;" id="_Path_16"/></g><path class="cls-14 occhio" d="M25.15,20.91a.78.78,0,1,0,.77-.77A.77.77,0,0,0,25.15,20.91Z" data-name="&lt;Path&gt;" id="occhio-sx"/><path class="cls-14 occhio" d="M36,20.91a.77.77,0,1,1-.77-.77A.76.76,0,0,1,36,20.91Z" data-name="&lt;Path&gt;" id="occhio-dx"/><g data-name="&lt;Group&gt;" id="_Group_2"><g data-name="&lt;Group&gt;" id="_Group_3"><g data-name="&lt;Group&gt;" id="_Group_4"><g data-name="&lt;Group&gt;" id="_Group_5"><g data-name="&lt;Group&gt;" id="_Group_6"><g data-name="&lt;Group&gt;" id="_Group_7"><g data-name="&lt;Group&gt;" id="_Group_8"><path class="cls-15" d="M27.75,25.6a.46.46,0,0,0-.44.51,3.32,3.32,0,0,0,6.55,0,.45.45,0,0,0-.44-.51Z" data-name="&lt;Path&gt;" id="_Path_19"/><path class="cls-16" d="M30.59,27a4.08,4.08,0,0,0-2.53.77,3.37,3.37,0,0,0,5.05,0A4,4,0,0,0,30.59,27Z" data-name="&lt;Path&gt;" id="_Path_20"/></g></g></g></g></g></g></g><g data-name="&lt;Group&gt;" id="_Group_9"><path class="cls-3" d="M27.75,25.6a.46.46,0,0,0-.44.51,3.32,3.32,0,0,0,6.55,0,.45.45,0,0,0-.44-.51Z" data-name="&lt;Path&gt;" id="_Path_21"/></g><ellipse class="cls-17" cx="24.65" cy="24.19" data-name="&lt;Ellipse&gt;" id="_Ellipse_2" rx="1" ry="0.6"/><ellipse class="cls-17" cx="36.53" cy="24.19" data-name="&lt;Ellipse&gt;" id="_Ellipse_3" rx="1" ry="0.6"/>
<g id="distintivo">
  <rect x="11" y="38.2" width="30" height="13" rx="2.2" fill="#111"/>
  <g transform="translate(11 38.2) scale(.1442 .1016)" fill="#fff">
    <path d="M30 98V30h20l20 25 20-25h20v68H90V59L70 84 50 59v39z"/>
    <path d="M155 98l-30-33h20V30h20v35h20z"/>
  </g>
</g>
<g id="mano-ok" transform="translate(1.4 0)">
  <g class="mano-dentro">
    <path d="M40.2,40.2 L46.4,33.6" fill="none" stroke="#45413c" stroke-width="5.6" stroke-linecap="round"/>
    <path d="M40.2,40.2 L46.4,33.6" fill="none" stroke="#fff" stroke-width="4.4" stroke-linecap="round"/>
    <path d="M41.6,41.2 L47.2,35.2" fill="none" stroke="#e0e0e0" stroke-width="1.4" stroke-linecap="round"/>
    <rect x="44.1" y="31.6" width="5.6" height="2.5" rx="1.2" transform="rotate(-47 46.9 32.85)" fill="#bdbec0" stroke="#45413c" stroke-linejoin="round"/>
    <g fill="#fff" stroke="#45413c" stroke-linejoin="round" stroke-linecap="round">
      <rect x="46.6" y="23.4" width="2.3" height="6.2" rx="1.15" transform="rotate(4 47.75 29)"/>
      <rect x="48.5" y="24.0" width="2.3" height="6.0" rx="1.15" transform="rotate(24 49.65 29.6)"/>
      <rect x="50.0" y="25.6" width="2.3" height="5.4" rx="1.15" transform="rotate(46 51.15 30.6)"/>
      <ellipse cx="48.3" cy="30.6" rx="3.0" ry="2.7"/>
      <path fill-rule="evenodd" d="M45.3,25.6a2.9,2.9,0,1,0,0,5.8a2.9,2.9,0,1,0,0,-5.8Z M45.3,27.5a1.0,1.0,0,1,1,0,2.0a1.0,1.0,0,1,1,0,-2.0Z"/>
    </g>
    <g class="scintilla" fill="#f29900" stroke="#45413c" stroke-width=".5" stroke-linejoin="round">
      <path d="M53.6,20.4l.7,1.9l1.9,.7l-1.9,.7l-.7,1.9l-.7,-1.9l-1.9,-.7l1.9,-.7Z"/>
      <path d="M55.0,30.4l.45,1.2l1.2,.45l-1.2,.45l-.45,1.2l-.45,-1.2l-1.2,-.45l1.2,-.45Z"/>
    </g>
  </g>
</g></g>
</svg>
